<svg width="32" height="32" viewBox="0 0 32 32" fill="none" xmlns="http://www.w3.org/2000/svg">
<path d="M8 2V0H1C0.447688 0 0 0.447688 0 1V8H2V3.41L11.29 12.7L12.7 11.29L3.41 2H8Z" fill="#EEC48B"/>
<path d="M31.0003 0H24.0003V2H28.5903L19.3003 11.29L20.7103 12.7L30.0003 3.41V8H32.0003V1C32.0003 0.447688 31.5526 0 31.0003 0Z" fill="#EEC48B"/>
<path d="M30.0003 28.5903L20.7103 19.3003L19.3003 20.7103L28.5903 30.0003H24.0003V32.0003H31.0003C31.5526 32.0003 32.0003 31.5526 32.0003 31.0003V24.0003H30.0003V28.5903Z" fill="#EEC48B"/>
<path d="M11.29 19.2905L2 28.5905V24.0005H0V31.0005C0 31.5528 0.447688 32.0005 1 32.0005H8V30.0005H3.41L12.7 20.7105L11.29 19.2905Z" fill="#EEC48B"/>
</svg>
